<svg id="Layer_1" data-name="Layer 1" xmlns="http://www.w3.org/2000/svg" viewBox="0 0 306 52"><defs><style>.cls-1{fill:#010101;}.cls-2{fill:#141414;}.cls-3,.cls-4{fill:#090a0a;}.cls-4{stroke:#090a0a;stroke-width:0.46px;}.cls-5,.cls-6,.cls-7{fill:none;stroke-width:0.78px;}.cls-5{stroke:#d03430;}.cls-6{stroke:#f7e558;}.cls-7{stroke:#079853;}</style></defs><title>FRF logo 2016</title><path class="cls-1" d="M75.18,49.49H73.32V40.59h5.11v1.55H75.18v2.3h3V46h-3Z"/><path class="cls-1" d="M93.5,45a4.83,4.83,0,0,1-1.1,3.4,4.75,4.75,0,0,1-6.29,0A4.85,4.85,0,0,1,85,45a4.79,4.79,0,0,1,1.1-3.4,4.12,4.12,0,0,1,3.15-1.17,4.05,4.05,0,0,1,3.14,1.18A4.84,4.84,0,0,1,93.5,45ZM87,45a3.72,3.72,0,0,0,.57,2.25,2,2,0,0,0,1.69.75q2.26,0,2.26-3t-2.25-3a2,2,0,0,0-1.7.76A3.7,3.7,0,0,0,87,45Z"/><path class="cls-1" d="M107.84,40.59v5.76a3.32,3.32,0,0,1-.44,1.73,2.87,2.87,0,0,1-1.28,1.14,4.57,4.57,0,0,1-2,.4,3.78,3.78,0,0,1-2.67-.88,3.13,3.13,0,0,1-1-2.41V40.59h1.88V46a2.28,2.28,0,0,0,.41,1.51,1.72,1.72,0,0,0,1.37.48,1.68,1.68,0,0,0,1.34-.48A2.3,2.3,0,0,0,106,46V40.59Z"/><path class="cls-1" d="M123.16,49.49h-2.4l-3.88-6.74h-.05q.12,1.78.12,2.55v4.19h-1.69V40.59h2.38l3.87,6.67h0q-.09-1.74-.09-2.46V40.59h1.7Z"/><path class="cls-1" d="M138,45a4.39,4.39,0,0,1-1.25,3.37,5.11,5.11,0,0,1-3.62,1.17h-2.52V40.59h2.8a4.71,4.71,0,0,1,3.39,1.15A4.24,4.24,0,0,1,138,45Zm-2,0q0-2.87-2.53-2.87h-1v5.8h.81Q136.07,47.93,136.07,45Z"/><path class="cls-1" d="M150.58,49.49l-.65-2.12h-3.25L146,49.49h-2l3.14-8.94h2.31l3.16,8.94Zm-1.1-3.7-1-3.26q-.11-.38-.16-.6-.2.78-1.15,3.86Z"/><path class="cls-1" d="M162.41,49.49h-1.89V42.16H158.1V40.59h6.73v1.57h-2.42Z"/><path class="cls-1" d="M171.44,49.49V40.59h1.89v8.91Z"/><path class="cls-1" d="M188.9,45a4.83,4.83,0,0,1-1.1,3.4,4.75,4.75,0,0,1-6.29,0,4.85,4.85,0,0,1-1.1-3.41,4.79,4.79,0,0,1,1.1-3.4,4.12,4.12,0,0,1,3.15-1.17,4.05,4.05,0,0,1,3.14,1.18A4.84,4.84,0,0,1,188.9,45Zm-6.5,0a3.72,3.72,0,0,0,.57,2.25,2,2,0,0,0,1.69.75q2.26,0,2.26-3t-2.25-3a2,2,0,0,0-1.7.76A3.7,3.7,0,0,0,182.4,45Z"/><path class="cls-1" d="M203.89,49.49h-2.4l-3.87-6.74h-.05q.11,1.78.12,2.55v4.19H196V40.59h2.38l3.87,6.67h0q-.09-1.74-.09-2.46V40.59h1.7Z"/><path class="cls-2" d="M24.75,10.77H16.09a7.55,7.55,0,0,0-3.67.61q-1.32.92-1.32,3.6v.12H24.69v4.39H11.1V35.3H3.58V15.06q0-4.52,1.5-6.45,1.68-2.23,6.06-2.23H24.75Z"/><path class="cls-2" d="M45.07,43.72H35.63q-4.33,0-6-2.23-1.5-1.93-1.5-6.44V6.38h7.52V35.6q0,2.35,1.39,3.13a7.76,7.76,0,0,0,3.63.6h4.42Z"/><path class="cls-2" d="M68.46,35q0,4.52-1.5,6.44-1.68,2.23-6,2.23H42.48V39.33H56a7.51,7.51,0,0,0,3.62-.6q1.33-.84,1.33-3.43H47.29q-4.33,0-6.07-2.23-1.44-1.93-1.44-6.45V6.38h7.52V27.17q0,2.35,1.39,3.13a7.72,7.72,0,0,0,3.62.6H56a7.54,7.54,0,0,0,3.56-.6q1.39-.78,1.39-3.13V6.38h7.52Z"/><path class="cls-2" d="M80.66,35.06H73.15V6.38h7.52Z"/><path class="cls-2" d="M114,35.3H105L92.87,13.78V35.3H85.35V6.38H94l12.56,22.37V6.38H114Z"/><path class="cls-2" d="M202.47,35.3h-5.6l-6.21-11.06h-9.36V35.3h-7.52V6.38H195q4.51,0,6.19,2.41,1.32,2,1.32,6.75a12.07,12.07,0,0,1-1.14,6q-1.44,2.41-5.17,2.65ZM195,15.73V14.52q0-2.36-1.44-3.15a7.46,7.46,0,0,0-3.55-.61h-8.66v9.08H190a7.41,7.41,0,0,0,3.61-.6Q195,18.4,195,15.73Z"/><path class="cls-2" d="M234.64,35q0,4.52-1.5,6.44-1.68,2.23-6,2.23H208.67V39.33h13.51a7.51,7.51,0,0,0,3.62-.6q1.33-.84,1.33-3.43H213.48q-4.33,0-6.07-2.23Q206,31.14,206,26.62V6.38h7.52V27.17q0,2.35,1.39,3.13a7.72,7.72,0,0,0,3.62.6h3.68a7.54,7.54,0,0,0,3.56-.6q1.39-.78,1.39-3.13V6.38h7.52Z"/><path class="cls-2" d="M268.43,35.3H247.27q-4.33,0-6.07-2.22-1.44-1.92-1.44-6.43V23.76q0-4.51,1.45-6.43,1.75-2.22,6.09-2.22h13.63v-.18q0-2.68-1.33-3.54a7.41,7.41,0,0,0-3.62-.61H240.65V6.38h20.26q4.33,0,6,2.23,1.5,1.93,1.5,6.45Zm-7.52-4.39V19.49h-8.64a7.52,7.52,0,0,0-3.62.6q-1.39.84-1.39,3.49v3.61q0,2.35,1.39,3.13a7.73,7.73,0,0,0,3.62.6Z"/><path class="cls-2" d="M300.84,35.3h-9.08L279.68,13.78V35.3h-7.52V6.38h8.6l12.56,22.37V6.38h7.52Z"/><path class="cls-3" d="M121.75,5.66l11.31,8.64,1.44-.1s-.31-2.67,1.54-3.29l1.13-.92,2.16-3,.51-1.13,1.54-.93,2.88-.62L146.64,4s2.57-4.83,5.45.41c0,0,2.06,0,2.26.93,0,0,3.7-.72,4.22,1.13a2,2,0,0,1-.93,2.67,4.73,4.73,0,0,0-.93,2,2.62,2.62,0,0,1-3,.82l.21,1.85v2.78l.51,1.44.21,1.75.82,1.13-.21,1,5,.62s5,1,3.81,2.47c0,0-.62,1.85-4.53,1.34l-5.25-.72v1.13l-.82.72-2.37-.41-.2-1.13.31-.92-4.42-.62,7.82,6.17s3,1.65,1.54,2.88c0,0-.93,1.13-3.39,0L140.26,23.25,119.49,21s-1.75.2-1.23-1.75c0,0-.31-1.65,2.16-1.23l15.22,2.06.1-.41-14.5-10.8A1.35,1.35,0,0,1,121,6.79Z"/><line class="cls-4" x1="140.57" y1="6.79" x2="123.29" y2="4.63"/><ellipse class="cls-3" cx="124.89" cy="4.79" rx="0.67" ry="1.08"/><line class="cls-4" x1="151.78" y1="26.03" x2="170.3" y2="36.21"/><ellipse class="cls-3" cx="168.86" cy="35.59" rx="1.39" ry="0.62" transform="translate(89.33 188.74) rotate(-74.46)"/><line class="cls-5" x1="154.14" y1="5.7" x2="155.24" y2="6.96"/><line class="cls-6" x1="155.22" y1="6.95" x2="156.32" y2="8.21"/><line class="cls-7" x1="156.34" y1="8.22" x2="157.43" y2="9.49"/></svg>