<svg version="1.1" id="Capa_1" xmlns="http://www.w3.org/2000/svg" xmlns:xlink="http://www.w3.org/1999/xlink" x="0px" y="0px"
	 viewBox="0 0 45 45" style="enable-background:new 0 0 45 45;" xml:space="preserve">
<title>facebook</title>
<path fill="white" d="M41.7,12.8c-1.5-2.9-3.7-5.5-6.3-7.5c-0.3-0.4-0.9-0.4-1.2,0s-0.4,0.9,0,1.2c0.1,0.1,0.2,0.1,0.3,0.2
	c2.4,1.8,4.4,4.2,5.8,6.8c1.4,2.8,2.2,5.9,2.2,9c0,10.9-8.8,19.8-19.7,19.8S2.9,33.6,2.9,22.7c0-10.9,8.8-19.8,19.7-19.8
	c0,0,0,0,0,0c0.5,0.1,0.9-0.3,1-0.8c0.1-0.5-0.3-0.9-0.8-1c-0.1,0-0.1,0-0.2,0c-11.9,0-21.5,9.6-21.5,21.5s9.6,21.5,21.5,21.5
	s21.5-9.6,21.5-21.5C44.1,19.2,43.3,15.8,41.7,12.8z"/>
<path fill="white" d="M25.5,16.4c0.6,0,1.2,0,1.8,0h0.2v-3c-0.3,0-0.6-0.1-1-0.1c-0.6,0-1.2-0.1-1.8,0c-0.9,0-1.8,0.3-2.5,0.8
	c-0.8,0.6-1.4,1.5-1.5,2.5c-0.1,0.4-0.1,0.9-0.1,1.3c0,0.7,0,1.4,0,2v0.2h-2.9v3.4h2.9V32h3.6v-8.5H27l0.4-3.4h-3.3c0,0,0-1.7,0-2.4
	C24.1,16.7,24.7,16.4,25.5,16.4z"/>
</svg>