<svg class="change-my-color" version="1.1" id="Capa_1" xmlns="http://www.w3.org/2000/svg" xmlns:xlink="http://www.w3.org/1999/xlink" x="0px" y="0px"
	 viewBox="0 0 44 44" style="enable-background:new 0 0 44 44;" xml:space="preserve">
<title>fliker</title>
<path fill="white" d="M41.1,12.2c-1.5-2.9-3.7-5.5-6.3-7.5c-0.3-0.4-0.9-0.4-1.2,0s-0.4,0.9,0,1.2C33.7,6,33.8,6,33.9,6.1
	c2.4,1.8,4.4,4.2,5.8,6.8c1.4,2.8,2.2,5.9,2.2,9c0,10.9-8.8,19.8-19.7,19.8S2.3,33,2.3,22.1S11.1,2.3,22,2.3l0,0
	c0.5,0.1,0.9-0.3,1-0.8s-0.3-0.9-0.8-1c-0.1,0-0.1,0-0.2,0C10.1,0.6,0.5,10.2,0.5,22.1S10.1,43.6,22,43.6S43.5,33.9,43.5,22
	C43.5,18.6,42.7,15.3,41.1,12.2z"/>
<circle fill="white" cx="16.4" cy="22.1" r="4.2"/>
<circle fill="white" cx="27.3" cy="22.1" r="4.2"/>
</svg>