<svg version="1.1" id="Capa_1" xmlns="http://www.w3.org/2000/svg" xmlns:xlink="http://www.w3.org/1999/xlink" x="0px" y="0px"
	 viewBox="0 0 44 44" style="enable-background:new 0 0 44 44;" xml:space="preserve">
<title>instagram</title>
<path fill="white" d="M40.9,12.2c-1.5-2.9-3.7-5.5-6.3-7.5c-0.3-0.4-0.9-0.4-1.2,0c-0.3,0.4-0.4,0.9,0,1.2C33.5,6,33.7,6,33.8,6.1
	c2.4,1.8,4.4,4.2,5.8,6.8c1.4,2.8,2.2,5.9,2.2,9c0,10.9-8.8,19.8-19.7,19.8S2.2,32.9,2.2,22S11,2.2,21.9,2.2l0,0
	c0.5,0.1,0.9-0.3,1-0.8s-0.3-0.9-0.8-1c-0.1,0-0.1,0-0.2,0C10,0.5,0.4,10.1,0.4,22s9.7,21.5,21.5,21.5S43.3,33.8,43.3,22
	C43.3,18.6,42.6,15.2,40.9,12.2z"/>
<path fill="white" d="M26.5,29.9h-9.1c-1.9,0-3.4-1.5-3.4-3.4v-9.2c0-1.9,1.5-3.4,3.4-3.4h9.1c1.9,0,3.4,1.5,3.4,3.4v9.1
	C29.9,28.3,28.4,29.9,26.5,29.9z M17.2,15.7c-0.9,0-1.6,0.7-1.6,1.6v9.2c0,0.9,0.7,1.6,1.6,1.6h9.1c0.9,0,1.6-0.7,1.6-1.6v-9.2
	c0-0.9-0.7-1.6-1.6-1.6L17.2,15.7z"/>
<path fill="white" d="M21.9,26.3c-2.4,0-4.4-2-4.4-4.4s2-4.4,4.4-4.4s4.4,2,4.4,4.4S24.2,26.3,21.9,26.3L21.9,26.3z M21.9,19.3
	c-1.4,0-2.6,1.1-2.6,2.5s1.1,2.6,2.5,2.6s2.6-1.1,2.6-2.5l0,0C24.4,20.4,23.2,19.3,21.9,19.3L21.9,19.3z"/>
<circle fill="white" cx="26.4" cy="17.6" r="0.8"/>
</svg>