<svg version="1.1" id="Capa_1" xmlns="http://www.w3.org/2000/svg" xmlns:xlink="http://www.w3.org/1999/xlink" x="0px" y="0px"
	 viewBox="0 0 44 44" style="enable-background:new 0 0 44 44;" xml:space="preserve">
<title>twitter</title>
<path fill="white" d="M41.1,12.2c-1.5-2.9-3.7-5.5-6.3-7.5c-0.3-0.4-0.9-0.4-1.2,0s-0.4,0.9,0,1.2c0.1,0.1,0.2,0.1,0.3,0.2
	c2.4,1.8,4.4,4.2,5.8,6.8c1.4,2.8,2.2,5.9,2.2,9c0,10.9-8.8,19.8-19.7,19.8S2.3,33,2.3,22C2.3,11.1,11.1,2.3,22,2.3c0,0,0,0,0,0
	c0.5,0.1,0.9-0.3,1-0.8c0.1-0.5-0.3-0.9-0.8-1c-0.1,0-0.1,0-0.2,0C10.1,0.5,0.5,10.1,0.5,22S10.2,43.5,22,43.5S43.5,33.9,43.5,22
	C43.5,18.6,42.7,15.2,41.1,12.2z"/>
<path fill="white" d="M17.9,26.5c-1.8,0-3.3-1.2-3.9-2.9c0.6,0.1,1.2,0.1,1.8,0h0.1c-1.1-0.2-2.1-0.9-2.7-1.9c-0.4-0.7-0.6-1.4-0.6-2.2
	c0.6,0.3,1.2,0.5,1.9,0.5c-0.9-0.6-1.5-1.5-1.7-2.5c-0.2-1-0.1-2.1,0.4-3c2.1,2.6,5.2,4.2,8.6,4.4c0-0.2,0-0.3-0.1-0.5
	C21.3,16,23,14,25.3,13.7c1.3-0.2,2.5,0.3,3.4,1.2c0.1,0.1,0.1,0.1,0.2,0.1c0.8-0.2,1.7-0.5,2.4-0.9h0.1l0,0
	c-0.3,0.9-0.9,1.7-1.8,2.3c0.8-0.1,1.6-0.3,2.3-0.6l0,0c-0.2,0.2-0.3,0.4-0.5,0.6c-0.4,0.5-1,1-1.5,1.4c0,0-0.1,0.1-0.1,0.1
	c0,0.6,0,1.2-0.1,1.9c-0.2,1.3-0.5,2.5-1.1,3.7c-0.6,1.2-1.3,2.3-2.2,3.3c-1.5,1.6-3.5,2.7-5.7,3.2c-0.8,0.2-1.5,0.3-2.3,0.3
	c-2.4,0.1-4.7-0.5-6.7-1.8l-0.1-0.1c1.4,0.2,2.9,0,4.2-0.6C16.6,27.4,17.3,27,17.9,26.5z"/>
</svg>