<svg version="1.1" id="Capa_1" xmlns="http://www.w3.org/2000/svg" xmlns:xlink="http://www.w3.org/1999/xlink" x="0px" y="0px"
	 viewBox="0 0 44 44" style="enable-background:new 0 0 44 44;" xml:space="preserve">
<title>video</title>
<path fill="white" d="M41.2,12.3c-1.5-2.9-3.7-5.5-6.3-7.5c-0.3-0.4-0.9-0.4-1.2,0s-0.4,0.9,0,1.2c0.1,0.1,0.2,0.1,0.3,0.2
	c2.4,1.8,4.4,4.2,5.8,6.8c1.4,2.8,2.2,5.9,2.2,9c0,10.9-8.8,19.8-19.7,19.8S2.4,33.1,2.4,22.2c0-10.9,8.8-19.8,19.7-19.8
	c0,0,0,0,0,0c0.5,0.1,0.9-0.3,1-0.8c0.1-0.5-0.3-0.9-0.8-1c-0.1,0-0.1,0-0.2,0c-11.9,0-21.5,9.6-21.5,21.5s9.6,21.5,21.5,21.5
	S43.6,34,43.6,22.1C43.6,18.7,42.8,15.3,41.2,12.3z"/>
<path fill="white" d="M14.8,28c-0.7-0.2-1.2-0.7-1.4-1.4c-0.6-1.7-0.8-8.6,0.4-10c0.4-0.5,0.9-0.8,1.5-0.8c3.1-0.3,12.9-0.3,14,0.1
	c0.6,0.2,1.1,0.7,1.4,1.3c0.7,1.7,0.7,8-0.1,9.6c-0.2,0.4-0.6,0.8-1,1C28.4,28.5,16.3,28.5,14.8,28z M19.8,24.7l5.7-2.9l-5.7-3V24.7
	z"/>
</svg>